<svg width="10" height="10" viewBox="0 0 10 10" xmlns="http://www.w3.org/2000/svg">
    <path d="M7.349 10.02c.735-.052 1.12-.318 1.317-.614-.038-.72-.148-1.615-.456-2.428-.177-.466-.427-.888-.735-1.198a6.827 6.827 0 0 0-.96-.888c-.618-.46-1.16-.66-1.331-.73-.174-.067-.485-.194-.861-.334a6.949 6.949 0 0 1-1.218-.545 13.678 13.678 0 0 1-1.454-.93c-.001 0 .704.393 1.523.718.413.177.835.294 1.23.385.387.1.715.203.895.273.337.141 2.358.79 3.39 2.969.234.556.38 1.131.475 1.67.234-.132.524-.388.603-.862.138-.826.062-3.303-2.173-4.68C5.358 1.45 2.863 1.725 1.669 1.321.475.918 0 0 0 0s.995 9.342 7.349 10.02z" fill="#00C876" fill-rule="nonzero"/>
</svg>
