<svg width="54" height="54" viewBox="0 0 54 54" xmlns="http://www.w3.org/2000/svg" xmlns:xlink="http://www.w3.org/1999/xlink">
    <defs>
        <path d="M18.061 38.976c6.12-9.807 7.777-8.603 8.123-8.067l.022.037.019.033a.6.6 0 0 1 .038.089s3.855 19.313 9.567 11.52a76.378 76.378 0 0 1 2.798-3.548l.34-.403c2.108-2.483 4.385-4.803 4.718-3.869 1.267 3.555 3.491 5.978 5.54 7.564C44.357 49.382 36.218 54 27 54c-8.276 0-15.682-3.723-20.635-9.586.233-.284.455-.66.665-1.142 2.538-5.858 6.052-8.494 6.638-7.518.586.977 2.538 5.955 4.393 3.222zM27 0c14.912 0 27 12.088 27 27 0 3.64-.72 7.112-2.026 10.28-.114-.171-.229-.345-.343-.52l-.359-.548c-1.129-1.735-2.174-3.401-2.359-3.68-.39-.585-6.542-14.449-10.544-6.834-4.003 7.615-6.737 2.93-6.737 2.93s-5.174-5.565-8.103-11.619c-2.929-6.053-6.541-2.148-7.908 0-.661 1.04-4.34 6.285-7.961 11.422l-.482.684c-2.038 2.89-4.014 5.684-5.375 7.608A26.946 26.946 0 0 1 0 27C0 12.088 12.088 0 27 0z" id="mycy0zresa"/>
    </defs>
    <use fill="#00C876" xlink:href="#mycy0zresa" fill-rule="evenodd"/>
</svg>
